<svg width="1855" height="794" viewBox="0 0 1855 794" fill="none" xmlns="http://www.w3.org/2000/svg">
<path d="M243.072 550.834C268.144 576 308.496 576 389.2 576H403.467C484.172 576 524.524 576 549.596 550.834C574.668 525.669 574.668 485.166 574.668 404.159V389.839C574.668 308.833 574.668 268.329 549.596 243.164C524.524 218 484.172 218 403.467 218H389.2C308.496 218 268.144 218 243.072 243.164C218 268.329 218 308.833 218 389.839V404.159C218 485.166 218 525.669 243.072 550.834Z" fill="#0077FF"/>
<path fill-rule="evenodd" clip-rule="evenodd" d="M493.368 455.955L469.269 449.912C466.367 449.077 464.318 446.456 464.215 443.409L461.207 354.38C460.337 342.596 451.623 333.224 442.516 330.464C442.005 330.309 441.459 330.518 441.156 330.96C440.848 331.408 440.967 332.029 441.396 332.363C443.645 334.11 449.835 339.812 449.835 349.648L449.817 466.052C449.817 477.292 439.235 485.535 428.32 482.798L403.849 476.662C401.135 475.709 399.251 473.173 399.152 470.247L396.145 381.212C395.275 369.428 386.56 360.056 377.453 357.296C376.942 357.141 376.396 357.35 376.093 357.791C375.786 358.24 375.904 358.861 376.334 359.194C378.583 360.942 384.772 366.644 384.772 376.479L384.754 473.508L384.767 473.51V492.894C384.767 504.134 374.186 512.378 363.271 509.641L294.15 492.31C284.541 489.9 277.803 481.272 277.803 471.376L277.803 354.791C277.803 343.551 288.384 335.307 299.299 338.044L342.852 348.965V327.948C342.852 316.708 353.434 308.465 364.349 311.201L407.9 322.121V301.105C407.9 289.864 418.481 281.621 429.396 284.358L498.517 301.689C508.126 304.098 514.864 312.726 514.864 322.622V439.208C514.864 450.448 504.283 458.691 493.368 455.955Z" fill="white"/>
<path d="M775.414 423.67C802.193 416.758 819.79 396.023 819.79 368.888C819.79 335.353 793.266 311.802 756.031 311.802H689.722V492.275H720.326V425.974H742.004L789.441 492.275H825.401L775.414 423.67ZM756.031 339.961C775.159 339.961 788.421 351.737 788.421 368.888C788.421 386.039 775.159 397.815 756.031 397.815H720.326V339.961H756.031Z" fill="black"/>
<path d="M894.279 494.835C910.346 494.835 925.138 486.387 933.554 472.308L939.42 492.275H961.353V359.16H932.024V436.213C932.024 455.156 919.527 468.468 902.44 468.468C885.608 468.468 873.876 455.156 873.876 436.213V359.16H844.547V439.541C844.547 471.54 865.97 494.835 894.279 494.835Z" fill="black"/>
<path d="M1054.95 494.835C1088.87 494.835 1116.93 475.379 1116.93 443.125C1116.93 407.03 1087.6 396.535 1062.35 387.831C1042.71 381.175 1025.62 375.032 1025.62 358.904C1025.62 344.825 1038.63 337.401 1053.93 337.401C1070 337.401 1081.48 345.849 1087.85 360.184L1116.93 355.321C1107.75 327.162 1084.54 309.242 1052.91 309.242C1020.27 309.242 994.255 328.186 994.255 360.44C994.255 396.791 1023.58 406.774 1048.83 415.222C1068.22 421.622 1085.56 427.765 1085.56 444.149C1085.56 458.484 1072.55 466.676 1055.21 466.676C1035.32 466.676 1024.6 457.204 1015.17 440.053L985.584 445.173C994.255 475.635 1021.8 494.835 1054.95 494.835Z" fill="black"/>
<path d="M1196.71 466.676C1186.77 466.676 1181.92 461.812 1181.92 451.828V384.759H1221.45V359.16H1181.92V320.762H1159.99L1152.59 359.16H1130.91V384.759H1152.59V451.828C1152.59 477.939 1167.64 492.275 1196.71 492.275H1221.45L1224 466.676H1196.71Z" fill="black"/>
<path d="M1307.81 494.835C1349.39 494.835 1378.71 466.164 1378.71 425.718C1378.71 385.271 1349.39 356.6 1307.81 356.6C1266.24 356.6 1236.91 385.271 1236.91 425.718C1236.91 466.164 1266.24 494.835 1307.81 494.835ZM1307.81 467.956C1283.84 467.956 1267.52 450.805 1267.52 425.718C1267.52 400.631 1283.84 383.479 1307.81 383.479C1331.79 383.479 1348.11 400.631 1348.11 425.718C1348.11 450.805 1331.79 467.956 1307.81 467.956Z" fill="black"/>
<path d="M1433.54 492.275V413.686C1433.54 396.791 1441.7 387.319 1459.56 387.319H1476.39L1473.84 359.16H1468.23C1452.67 359.16 1440.68 363.512 1431.76 378.36L1426.15 359.16H1404.21V492.275H1433.54Z" fill="black"/>
<path d="M1620.7 424.182C1620.7 385.783 1592.14 356.6 1551.84 356.6C1511.55 356.6 1482.98 385.527 1482.98 425.718C1482.98 465.908 1511.55 494.835 1551.84 494.835C1579.39 494.835 1605.4 481.779 1615.35 456.436L1587.8 451.828C1581.43 461.3 1569.19 467.956 1553.63 467.956C1531.19 467.956 1516.39 454.132 1513.59 433.653H1620.19C1620.45 430.837 1620.7 427.765 1620.7 424.182ZM1551.84 382.199C1570.21 382.199 1583.98 393.975 1588.82 410.614H1515.37C1520.22 393.463 1533.99 382.199 1551.84 382.199Z" fill="black"/>
</svg>
